<mxfile host="app.diagrams.net" agent="Mozilla/5.0 (Windows NT 10.0; Win64; x64) AppleWebKit/537.36 (KHTML, like Gecko) Chrome/134.0.0.0 Safari/537.36 Edg/134.0.0.0" version="26.1.1">
  <diagram name="Page-1" id="sAbEKz0JLl8WQYeiOZIA">
    <mxGraphModel dx="1042" dy="531" grid="1" gridSize="10" guides="1" tooltips="1" connect="1" arrows="1" fold="1" page="1" pageScale="1" pageWidth="850" pageHeight="1100" math="0" shadow="0">
      <root>
        <mxCell id="0" />
        <mxCell id="1" parent="0" />
        <mxCell id="rAzQiFFHKU54NkG-bRZz-18" style="edgeStyle=orthogonalEdgeStyle;rounded=0;orthogonalLoop=1;jettySize=auto;html=1;" edge="1" parent="1" source="rAzQiFFHKU54NkG-bRZz-15" target="rAzQiFFHKU54NkG-bRZz-17">
          <mxGeometry relative="1" as="geometry" />
        </mxCell>
        <mxCell id="rAzQiFFHKU54NkG-bRZz-15" value="Program Start" style="ellipse;whiteSpace=wrap;html=1;fillColor=#d5e8d4;strokeColor=#82b366;" vertex="1" parent="1">
          <mxGeometry x="340" y="10" width="120" height="80" as="geometry" />
        </mxCell>
        <mxCell id="rAzQiFFHKU54NkG-bRZz-20" style="edgeStyle=orthogonalEdgeStyle;rounded=0;orthogonalLoop=1;jettySize=auto;html=1;entryX=0.5;entryY=0;entryDx=0;entryDy=0;" edge="1" parent="1" source="rAzQiFFHKU54NkG-bRZz-17" target="rAzQiFFHKU54NkG-bRZz-19">
          <mxGeometry relative="1" as="geometry" />
        </mxCell>
        <mxCell id="rAzQiFFHKU54NkG-bRZz-17" value="Initialize board (8x8 grid)" style="rounded=0;whiteSpace=wrap;html=1;fillColor=#ffe6cc;strokeColor=#d79b00;" vertex="1" parent="1">
          <mxGeometry x="340" y="120" width="120" height="60" as="geometry" />
        </mxCell>
        <mxCell id="rAzQiFFHKU54NkG-bRZz-22" style="edgeStyle=orthogonalEdgeStyle;rounded=0;orthogonalLoop=1;jettySize=auto;html=1;entryX=0.5;entryY=0;entryDx=0;entryDy=0;" edge="1" parent="1" source="rAzQiFFHKU54NkG-bRZz-19" target="rAzQiFFHKU54NkG-bRZz-21">
          <mxGeometry relative="1" as="geometry">
            <mxPoint x="400" y="310" as="targetPoint" />
          </mxGeometry>
        </mxCell>
        <mxCell id="rAzQiFFHKU54NkG-bRZz-19" value="Initialize pieces&lt;div&gt;set turnTracker = 0&lt;/div&gt;" style="rounded=0;whiteSpace=wrap;html=1;fillColor=#ffe6cc;strokeColor=#d79b00;" vertex="1" parent="1">
          <mxGeometry x="340" y="220" width="120" height="60" as="geometry" />
        </mxCell>
        <mxCell id="rAzQiFFHKU54NkG-bRZz-24" style="edgeStyle=orthogonalEdgeStyle;rounded=0;orthogonalLoop=1;jettySize=auto;html=1;" edge="1" parent="1" source="rAzQiFFHKU54NkG-bRZz-21" target="rAzQiFFHKU54NkG-bRZz-23">
          <mxGeometry relative="1" as="geometry" />
        </mxCell>
        <mxCell id="rAzQiFFHKU54NkG-bRZz-21" value="output: &quot;Welcome to our chess engine, please enter moves in the form a2-&amp;gt;a3&quot;" style="rounded=1;whiteSpace=wrap;html=1;fillColor=#dae8fc;strokeColor=#6c8ebf;" vertex="1" parent="1">
          <mxGeometry x="340" y="300" width="120" height="60" as="geometry" />
        </mxCell>
        <mxCell id="rAzQiFFHKU54NkG-bRZz-26" style="edgeStyle=orthogonalEdgeStyle;rounded=0;orthogonalLoop=1;jettySize=auto;html=1;entryX=0.5;entryY=0;entryDx=0;entryDy=0;" edge="1" parent="1" source="rAzQiFFHKU54NkG-bRZz-23" target="rAzQiFFHKU54NkG-bRZz-25">
          <mxGeometry relative="1" as="geometry" />
        </mxCell>
        <mxCell id="rAzQiFFHKU54NkG-bRZz-23" value="output:&lt;div&gt;getTurn(turnTracker)+&quot; to move&quot;&lt;/div&gt;" style="rounded=1;whiteSpace=wrap;html=1;fillColor=#dae8fc;strokeColor=#6c8ebf;" vertex="1" parent="1">
          <mxGeometry x="530" y="300" width="120" height="60" as="geometry" />
        </mxCell>
        <mxCell id="rAzQiFFHKU54NkG-bRZz-32" style="edgeStyle=orthogonalEdgeStyle;rounded=0;orthogonalLoop=1;jettySize=auto;html=1;" edge="1" parent="1" source="rAzQiFFHKU54NkG-bRZz-25" target="rAzQiFFHKU54NkG-bRZz-27">
          <mxGeometry relative="1" as="geometry" />
        </mxCell>
        <mxCell id="rAzQiFFHKU54NkG-bRZz-25" value="get move(String)" style="shape=parallelogram;perimeter=parallelogramPerimeter;whiteSpace=wrap;html=1;fixedSize=1;fillColor=#e1d5e7;strokeColor=#9673a6;" vertex="1" parent="1">
          <mxGeometry x="530" y="410" width="120" height="60" as="geometry" />
        </mxCell>
        <mxCell id="rAzQiFFHKU54NkG-bRZz-33" style="edgeStyle=orthogonalEdgeStyle;rounded=0;orthogonalLoop=1;jettySize=auto;html=1;entryX=0;entryY=0.5;entryDx=0;entryDy=0;" edge="1" parent="1" source="rAzQiFFHKU54NkG-bRZz-27" target="rAzQiFFHKU54NkG-bRZz-29">
          <mxGeometry relative="1" as="geometry" />
        </mxCell>
        <mxCell id="rAzQiFFHKU54NkG-bRZz-27" value="String concatenate to parameters" style="whiteSpace=wrap;html=1;fillColor=#ffe6cc;strokeColor=#d79b00;" vertex="1" parent="1">
          <mxGeometry x="530" y="530" width="120" height="60" as="geometry" />
        </mxCell>
        <mxCell id="rAzQiFFHKU54NkG-bRZz-34" style="edgeStyle=orthogonalEdgeStyle;rounded=0;orthogonalLoop=1;jettySize=auto;html=1;entryX=0.5;entryY=1;entryDx=0;entryDy=0;" edge="1" parent="1" source="rAzQiFFHKU54NkG-bRZz-29" target="rAzQiFFHKU54NkG-bRZz-31">
          <mxGeometry relative="1" as="geometry" />
        </mxCell>
        <mxCell id="rAzQiFFHKU54NkG-bRZz-29" value="Validate move(take turnTracker and inputs)" style="shape=process;whiteSpace=wrap;html=1;backgroundOutline=1;fillColor=#a20025;fontColor=#ffffff;strokeColor=#6F0000;" vertex="1" parent="1">
          <mxGeometry x="710" y="530" width="120" height="60" as="geometry" />
        </mxCell>
        <mxCell id="rAzQiFFHKU54NkG-bRZz-37" style="edgeStyle=orthogonalEdgeStyle;rounded=0;orthogonalLoop=1;jettySize=auto;html=1;entryX=0.5;entryY=1;entryDx=0;entryDy=0;" edge="1" parent="1" source="rAzQiFFHKU54NkG-bRZz-31" target="rAzQiFFHKU54NkG-bRZz-35">
          <mxGeometry relative="1" as="geometry" />
        </mxCell>
        <mxCell id="rAzQiFFHKU54NkG-bRZz-38" value="No" style="edgeLabel;html=1;align=center;verticalAlign=middle;resizable=0;points=[];" vertex="1" connectable="0" parent="rAzQiFFHKU54NkG-bRZz-37">
          <mxGeometry x="0.024" y="-4" relative="1" as="geometry">
            <mxPoint as="offset" />
          </mxGeometry>
        </mxCell>
        <mxCell id="rAzQiFFHKU54NkG-bRZz-39" style="edgeStyle=orthogonalEdgeStyle;rounded=0;orthogonalLoop=1;jettySize=auto;html=1;entryX=0;entryY=0.5;entryDx=0;entryDy=0;" edge="1" parent="1" source="rAzQiFFHKU54NkG-bRZz-31" target="rAzQiFFHKU54NkG-bRZz-42">
          <mxGeometry relative="1" as="geometry">
            <mxPoint x="870" y="450" as="targetPoint" />
          </mxGeometry>
        </mxCell>
        <mxCell id="rAzQiFFHKU54NkG-bRZz-40" value="yes" style="edgeLabel;html=1;align=center;verticalAlign=middle;resizable=0;points=[];" vertex="1" connectable="0" parent="rAzQiFFHKU54NkG-bRZz-39">
          <mxGeometry x="0.2125" y="-1" relative="1" as="geometry">
            <mxPoint as="offset" />
          </mxGeometry>
        </mxCell>
        <mxCell id="rAzQiFFHKU54NkG-bRZz-31" value="Move Valid?" style="rhombus;whiteSpace=wrap;html=1;fillColor=#fff2cc;strokeColor=#d6b656;" vertex="1" parent="1">
          <mxGeometry x="730" y="410" width="80" height="80" as="geometry" />
        </mxCell>
        <mxCell id="rAzQiFFHKU54NkG-bRZz-36" style="edgeStyle=orthogonalEdgeStyle;rounded=0;orthogonalLoop=1;jettySize=auto;html=1;entryX=1;entryY=0.5;entryDx=0;entryDy=0;" edge="1" parent="1" source="rAzQiFFHKU54NkG-bRZz-35" target="rAzQiFFHKU54NkG-bRZz-23">
          <mxGeometry relative="1" as="geometry" />
        </mxCell>
        <mxCell id="rAzQiFFHKU54NkG-bRZz-35" value="&quot;Please enter a valid move&quot;" style="rounded=1;whiteSpace=wrap;html=1;fillColor=#dae8fc;strokeColor=#6c8ebf;" vertex="1" parent="1">
          <mxGeometry x="710" y="300" width="120" height="60" as="geometry" />
        </mxCell>
        <mxCell id="rAzQiFFHKU54NkG-bRZz-46" style="edgeStyle=orthogonalEdgeStyle;rounded=0;orthogonalLoop=1;jettySize=auto;html=1;entryX=0.5;entryY=1;entryDx=0;entryDy=0;" edge="1" parent="1" source="rAzQiFFHKU54NkG-bRZz-42" target="rAzQiFFHKU54NkG-bRZz-44">
          <mxGeometry relative="1" as="geometry" />
        </mxCell>
        <mxCell id="rAzQiFFHKU54NkG-bRZz-42" value="&amp;nbsp;checkmate(turnTracker)" style="shape=process;whiteSpace=wrap;html=1;backgroundOutline=1;fillColor=#a20025;fontColor=#ffffff;strokeColor=#6F0000;" vertex="1" parent="1">
          <mxGeometry x="860" y="420" width="120" height="60" as="geometry" />
        </mxCell>
        <mxCell id="rAzQiFFHKU54NkG-bRZz-50" style="edgeStyle=orthogonalEdgeStyle;rounded=0;orthogonalLoop=1;jettySize=auto;html=1;exitX=0.5;exitY=0;exitDx=0;exitDy=0;entryX=1;entryY=0.5;entryDx=0;entryDy=0;" edge="1" parent="1" source="rAzQiFFHKU54NkG-bRZz-44" target="rAzQiFFHKU54NkG-bRZz-49">
          <mxGeometry relative="1" as="geometry" />
        </mxCell>
        <mxCell id="rAzQiFFHKU54NkG-bRZz-51" value="No" style="edgeLabel;html=1;align=center;verticalAlign=middle;resizable=0;points=[];" vertex="1" connectable="0" parent="rAzQiFFHKU54NkG-bRZz-50">
          <mxGeometry x="-0.0375" y="3" relative="1" as="geometry">
            <mxPoint as="offset" />
          </mxGeometry>
        </mxCell>
        <mxCell id="rAzQiFFHKU54NkG-bRZz-53" style="edgeStyle=orthogonalEdgeStyle;rounded=0;orthogonalLoop=1;jettySize=auto;html=1;entryX=0;entryY=0.5;entryDx=0;entryDy=0;" edge="1" parent="1" source="rAzQiFFHKU54NkG-bRZz-44" target="rAzQiFFHKU54NkG-bRZz-52">
          <mxGeometry relative="1" as="geometry" />
        </mxCell>
        <mxCell id="rAzQiFFHKU54NkG-bRZz-54" value="Yes" style="edgeLabel;html=1;align=center;verticalAlign=middle;resizable=0;points=[];" vertex="1" connectable="0" parent="rAzQiFFHKU54NkG-bRZz-53">
          <mxGeometry x="0.0667" y="3" relative="1" as="geometry">
            <mxPoint as="offset" />
          </mxGeometry>
        </mxCell>
        <mxCell id="rAzQiFFHKU54NkG-bRZz-44" value="is checkmate?" style="rhombus;whiteSpace=wrap;html=1;fillColor=#fff2cc;strokeColor=#d6b656;" vertex="1" parent="1">
          <mxGeometry x="880" y="300" width="80" height="80" as="geometry" />
        </mxCell>
        <mxCell id="rAzQiFFHKU54NkG-bRZz-72" style="edgeStyle=orthogonalEdgeStyle;rounded=0;orthogonalLoop=1;jettySize=auto;html=1;entryX=0.5;entryY=0;entryDx=0;entryDy=0;" edge="1" parent="1" source="rAzQiFFHKU54NkG-bRZz-49" target="rAzQiFFHKU54NkG-bRZz-23">
          <mxGeometry relative="1" as="geometry" />
        </mxCell>
        <mxCell id="rAzQiFFHKU54NkG-bRZz-49" value="Display new board&lt;div&gt;turnTracker+=1&lt;/div&gt;" style="rounded=0;whiteSpace=wrap;html=1;fillColor=#ffe6cc;strokeColor=#d79b00;" vertex="1" parent="1">
          <mxGeometry x="710" y="200" width="120" height="60" as="geometry" />
        </mxCell>
        <mxCell id="rAzQiFFHKU54NkG-bRZz-56" style="edgeStyle=orthogonalEdgeStyle;rounded=0;orthogonalLoop=1;jettySize=auto;html=1;" edge="1" parent="1" source="rAzQiFFHKU54NkG-bRZz-52" target="rAzQiFFHKU54NkG-bRZz-55">
          <mxGeometry relative="1" as="geometry" />
        </mxCell>
        <mxCell id="rAzQiFFHKU54NkG-bRZz-52" value="Display final board" style="rounded=0;whiteSpace=wrap;html=1;fillColor=#ffe6cc;strokeColor=#d79b00;" vertex="1" parent="1">
          <mxGeometry x="1020" y="310" width="120" height="60" as="geometry" />
        </mxCell>
        <mxCell id="rAzQiFFHKU54NkG-bRZz-61" style="edgeStyle=orthogonalEdgeStyle;rounded=0;orthogonalLoop=1;jettySize=auto;html=1;entryX=0.5;entryY=0;entryDx=0;entryDy=0;" edge="1" parent="1" source="rAzQiFFHKU54NkG-bRZz-55" target="rAzQiFFHKU54NkG-bRZz-60">
          <mxGeometry relative="1" as="geometry" />
        </mxCell>
        <mxCell id="rAzQiFFHKU54NkG-bRZz-55" value="Output:&lt;div&gt;getTurn(turnTracker) +&quot; won in &quot;+turnTracker+&quot; turns&quot;&lt;br&gt;&lt;div&gt;&lt;br&gt;&lt;/div&gt;&lt;/div&gt;" style="rounded=1;whiteSpace=wrap;html=1;fillColor=#dae8fc;strokeColor=#6c8ebf;" vertex="1" parent="1">
          <mxGeometry x="1010" y="420" width="140" height="90" as="geometry" />
        </mxCell>
        <mxCell id="rAzQiFFHKU54NkG-bRZz-66" style="edgeStyle=orthogonalEdgeStyle;rounded=0;orthogonalLoop=1;jettySize=auto;html=1;entryX=0;entryY=0.5;entryDx=0;entryDy=0;" edge="1" parent="1" source="rAzQiFFHKU54NkG-bRZz-59" target="rAzQiFFHKU54NkG-bRZz-17">
          <mxGeometry relative="1" as="geometry" />
        </mxCell>
        <mxCell id="rAzQiFFHKU54NkG-bRZz-67" value="yes" style="edgeLabel;html=1;align=center;verticalAlign=middle;resizable=0;points=[];" vertex="1" connectable="0" parent="rAzQiFFHKU54NkG-bRZz-66">
          <mxGeometry x="-0.7302" y="3" relative="1" as="geometry">
            <mxPoint as="offset" />
          </mxGeometry>
        </mxCell>
        <mxCell id="rAzQiFFHKU54NkG-bRZz-70" style="edgeStyle=orthogonalEdgeStyle;rounded=0;orthogonalLoop=1;jettySize=auto;html=1;entryX=0.5;entryY=0;entryDx=0;entryDy=0;" edge="1" parent="1" source="rAzQiFFHKU54NkG-bRZz-59" target="rAzQiFFHKU54NkG-bRZz-68">
          <mxGeometry relative="1" as="geometry" />
        </mxCell>
        <mxCell id="rAzQiFFHKU54NkG-bRZz-59" value="if startsWith &#39;y&#39;" style="rhombus;whiteSpace=wrap;html=1;fillColor=#fff2cc;strokeColor=#d6b656;" vertex="1" parent="1">
          <mxGeometry x="860" y="640" width="100" height="100" as="geometry" />
        </mxCell>
        <mxCell id="rAzQiFFHKU54NkG-bRZz-64" style="edgeStyle=orthogonalEdgeStyle;rounded=0;orthogonalLoop=1;jettySize=auto;html=1;" edge="1" parent="1" source="rAzQiFFHKU54NkG-bRZz-60" target="rAzQiFFHKU54NkG-bRZz-63">
          <mxGeometry relative="1" as="geometry" />
        </mxCell>
        <mxCell id="rAzQiFFHKU54NkG-bRZz-60" value="Would you like to play again?" style="rounded=1;whiteSpace=wrap;html=1;fillColor=#dae8fc;strokeColor=#6c8ebf;" vertex="1" parent="1">
          <mxGeometry x="1020" y="540" width="120" height="60" as="geometry" />
        </mxCell>
        <mxCell id="rAzQiFFHKU54NkG-bRZz-65" style="edgeStyle=orthogonalEdgeStyle;rounded=0;orthogonalLoop=1;jettySize=auto;html=1;entryX=1;entryY=0.5;entryDx=0;entryDy=0;" edge="1" parent="1" source="rAzQiFFHKU54NkG-bRZz-63" target="rAzQiFFHKU54NkG-bRZz-59">
          <mxGeometry relative="1" as="geometry" />
        </mxCell>
        <mxCell id="rAzQiFFHKU54NkG-bRZz-63" value="get line(String)" style="shape=parallelogram;perimeter=parallelogramPerimeter;whiteSpace=wrap;html=1;fixedSize=1;fillColor=#e1d5e7;strokeColor=#9673a6;" vertex="1" parent="1">
          <mxGeometry x="1020" y="660" width="120" height="60" as="geometry" />
        </mxCell>
        <mxCell id="rAzQiFFHKU54NkG-bRZz-71" style="edgeStyle=orthogonalEdgeStyle;rounded=0;orthogonalLoop=1;jettySize=auto;html=1;entryX=0.5;entryY=0;entryDx=0;entryDy=0;" edge="1" parent="1" source="rAzQiFFHKU54NkG-bRZz-68" target="rAzQiFFHKU54NkG-bRZz-69">
          <mxGeometry relative="1" as="geometry" />
        </mxCell>
        <mxCell id="rAzQiFFHKU54NkG-bRZz-68" value="Thanks for playing!" style="rounded=1;whiteSpace=wrap;html=1;fillColor=#dae8fc;strokeColor=#6c8ebf;" vertex="1" parent="1">
          <mxGeometry x="850" y="770" width="120" height="60" as="geometry" />
        </mxCell>
        <mxCell id="rAzQiFFHKU54NkG-bRZz-69" value="End Program" style="ellipse;whiteSpace=wrap;html=1;fillColor=#d5e8d4;strokeColor=#82b366;" vertex="1" parent="1">
          <mxGeometry x="850" y="870" width="120" height="80" as="geometry" />
        </mxCell>
      </root>
    </mxGraphModel>
  </diagram>
</mxfile>
